<svg xmlns="http://www.w3.org/2000/svg" width="120.467" height="117.493" viewBox="0 0 120.467 117.493">
  <g id="github" transform="translate(11 -15)">
    <path id="Path_4888" data-name="Path 4888" d="M60.234,0A60.24,60.24,0,0,0,41.192,117.39c3.01.558,4.116-1.307,4.116-2.9,0-1.436-.056-6.181-.082-11.214-16.757,3.644-20.293-7.107-20.293-7.107-2.74-6.962-6.688-8.813-6.688-8.813-5.465-3.739.412-3.662.412-3.662C24.7,84.121,27.89,89.9,27.89,89.9c5.372,9.208,14.091,6.546,17.528,5.007.541-3.893,2.1-6.55,3.824-8.054C35.863,85.333,21.8,80.168,21.8,57.088A23.311,23.311,0,0,1,28.005,40.92c-.625-1.517-2.687-7.643.584-15.94,0,0,5.058-1.619,16.569,6.174a57.134,57.134,0,0,1,30.166,0c11.5-7.793,16.548-6.174,16.548-6.174,3.278,8.3,1.216,14.423.591,15.94a23.266,23.266,0,0,1,6.2,16.168c0,23.135-14.091,28.229-27.5,29.72,2.16,1.869,4.086,5.535,4.086,11.154,0,8.059-.07,14.545-.07,16.529,0,1.6,1.084,3.481,4.137,2.89A60.243,60.243,0,0,0,60.234,0ZM22.56,85.8c-.133.3-.6.389-1.032.184s-.682-.6-.541-.9.6-.394,1.037-.188S22.711,85.5,22.56,85.8Zm2.963,2.644c-.287.266-.849.143-1.23-.278a.921.921,0,0,1-.177-1.252c.3-.266.841-.142,1.236.278S25.823,88.179,25.522,88.448Zm2.033,3.382c-.369.256-.972.016-1.346-.52s-.369-1.178.008-1.435.969-.026,1.347.505S27.932,91.569,27.555,91.831Zm3.438,3.918c-.33.364-1.033.266-1.548-.23s-.673-1.175-.342-1.539,1.041-.263,1.56.231S31.345,95.388,30.993,95.748Zm4.443,1.323c-.146.472-.823.686-1.505.486s-1.127-.759-.989-1.236.822-.7,1.509-.484S35.577,96.591,35.435,97.071Zm5.056.561c.017.5-.562.909-1.278.918s-1.3-.386-1.311-.875.566-.91,1.286-.922S40.491,97.138,40.491,97.632Zm4.967-.191c.086.485-.412.983-1.123,1.115s-1.347-.172-1.435-.652c-.087-.5.42-.995,1.118-1.123S45.368,96.949,45.458,97.441Z" transform="translate(-11 15)" fill="#161614"/>
  </g>
</svg>
