<svg xmlns="http://www.w3.org/2000/svg" xmlns:xlink="http://www.w3.org/1999/xlink" width="130.024" height="129.989" viewBox="0 0 130.024 129.989">
  <defs>
    <radialGradient id="radial-gradient" cx="0.266" cy="1.077" r="0.991" gradientTransform="translate(-2.918 5.666) rotate(-90) scale(1 0.93)" gradientUnits="objectBoundingBox">
      <stop offset="0" stop-color="#fd5"/>
      <stop offset="0.1" stop-color="#fd5"/>
      <stop offset="0.5" stop-color="#ff543e"/>
      <stop offset="1" stop-color="#c837ab"/>
    </radialGradient>
    <radialGradient id="radial-gradient-2" cx="-0.168" cy="0.072" r="0.443" gradientTransform="matrix(0.196, 0.981, -4.042, 0.809, 15.634, -0.42)" gradientUnits="objectBoundingBox">
      <stop offset="0" stop-color="#3771c8"/>
      <stop offset="0.128" stop-color="#3771c8"/>
      <stop offset="1" stop-color="#60f" stop-opacity="0"/>
    </radialGradient>
  </defs>
  <g id="instagram" transform="translate(-1.001 -1)">
    <path id="Path_4883" data-name="Path 4883" d="M65.03,0C37.888,0,29.95.028,28.407.156c-5.57.463-9.036,1.34-12.812,3.22a25.952,25.952,0,0,0-7.47,5.468A27.9,27.9,0,0,0,.6,24.656C.155,27.7.027,28.316,0,43.844c-.01,5.176,0,11.988,0,21.125,0,27.12.03,35.05.16,36.59.45,5.42,1.3,8.83,3.1,12.56a27.387,27.387,0,0,0,17.75,14.5,46.125,46.125,0,0,0,9.44,1.25c1.61.07,18.02.12,34.44.12s32.84-.02,34.41-.1a44.416,44.416,0,0,0,9.78-1.28,27.221,27.221,0,0,0,17.75-14.53,32.118,32.118,0,0,0,3.065-12.317c.088-1.12.125-18.977.125-36.81s-.04-35.66-.128-36.78a31.758,31.758,0,0,0-3.127-12.44A25.767,25.767,0,0,0,121.2,8.108,28.069,28.069,0,0,0,105.372.6C102.335.157,101.73.027,86.19,0Z" transform="translate(1.004 1)" fill="url(#radial-gradient)"/>
    <path id="Path_4884" data-name="Path 4884" d="M65.03,0C37.888,0,29.95.028,28.407.156c-5.57.463-9.036,1.34-12.812,3.22a25.952,25.952,0,0,0-7.47,5.468A27.9,27.9,0,0,0,.6,24.656C.155,27.7.027,28.316,0,43.844c-.01,5.176,0,11.988,0,21.125,0,27.12.03,35.05.16,36.59.45,5.42,1.3,8.83,3.1,12.56a27.387,27.387,0,0,0,17.75,14.5,46.125,46.125,0,0,0,9.44,1.25c1.61.07,18.02.12,34.44.12s32.84-.02,34.41-.1a44.416,44.416,0,0,0,9.78-1.28,27.221,27.221,0,0,0,17.75-14.53,32.118,32.118,0,0,0,3.065-12.317c.088-1.12.125-18.977.125-36.81s-.04-35.66-.128-36.78a31.758,31.758,0,0,0-3.127-12.44A25.767,25.767,0,0,0,121.2,8.108,28.069,28.069,0,0,0,105.372.6C102.335.157,101.73.027,86.19,0Z" transform="translate(1.004 1)" fill="url(#radial-gradient-2)"/>
    <path id="Path_4885" data-name="Path 4885" d="M66,18c-13.036,0-14.672.057-19.792.29a35.225,35.225,0,0,0-11.65,2.23A24.554,24.554,0,0,0,20.519,34.557a35.062,35.062,0,0,0-2.23,11.65C18.06,51.327,18,52.964,18,66s.058,14.667.29,19.787a35.276,35.276,0,0,0,2.23,11.65A24.563,24.563,0,0,0,34.556,111.48a35.254,35.254,0,0,0,11.652,2.23c5.12.233,6.755.29,19.79.29s14.668-.057,19.788-.29a35.275,35.275,0,0,0,11.656-2.23,24.594,24.594,0,0,0,14.037-14.042,35.579,35.579,0,0,0,2.23-11.65c.23-5.12.29-6.752.29-19.788s-.06-14.672-.29-19.792a35.562,35.562,0,0,0-2.23-11.65A24.558,24.558,0,0,0,97.439,20.52a35.335,35.335,0,0,0-11.66-2.23c-5.12-.233-6.75-.29-19.79-.29ZM61.7,26.65c1.278,0,2.7,0,4.306,0,12.816,0,14.335.046,19.4.276a26.575,26.575,0,0,1,8.912,1.653,15.9,15.9,0,0,1,9.108,9.11,26.522,26.522,0,0,1,1.653,8.91c.23,5.06.28,6.58.28,19.39s-.05,14.33-.28,19.39a26.548,26.548,0,0,1-1.653,8.91,15.917,15.917,0,0,1-9.108,9.1,26.478,26.478,0,0,1-8.912,1.654c-5.06.23-6.58.28-19.4.28s-14.336-.05-19.4-.28a26.626,26.626,0,0,1-8.913-1.655,15.9,15.9,0,0,1-9.112-9.107,26.522,26.522,0,0,1-1.653-8.91c-.23-5.06-.276-6.58-.276-19.4s.046-14.33.276-19.39a26.575,26.575,0,0,1,1.653-8.912,15.907,15.907,0,0,1,9.112-9.112,26.516,26.516,0,0,1,8.913-1.655c4.428-.2,6.144-.26,15.09-.27Zm29.928,7.97a5.759,5.759,0,1,0,5.76,5.758,5.759,5.759,0,0,0-5.76-5.758ZM66,41.35A24.648,24.648,0,1,0,90.65,66,24.651,24.651,0,0,0,66,41.35ZM66,50A16,16,0,1,1,50,66,16,16,0,0,1,66,50Z" fill="#fff"/>
  </g>
</svg>
