<svg xmlns="http://www.w3.org/2000/svg" width="142.141" height="99.338" viewBox="0 0 142.141 99.338">
  <g id="youtube" transform="translate(-1.236 -0.427)">
    <path id="Path_4886" data-name="Path 4886" d="M140.223,15.96A17.788,17.788,0,0,0,127.668,3.4C119.443.23,39.779-1.326,16.67,3.5A17.788,17.788,0,0,0,4.115,16.051C.4,32.337.121,67.547,4.206,84.2A17.788,17.788,0,0,0,16.761,96.752c16.286,3.748,93.711,4.276,111,0A17.788,17.788,0,0,0,140.314,84.2C144.272,66.455,144.554,33.429,140.223,15.96Z" transform="translate(0 0)" fill="red"/>
    <path id="Path_4887" data-name="Path 4887" d="M101.32,52.89,64.2,31.6V74.179Z" transform="translate(-5.678 -2.811)" fill="#fff"/>
  </g>
</svg>
